<?xml version="1.0" encoding="utf-8"?>
<!-- Generator: Adobe Illustrator 21.0.0, SVG Export Plug-In . SVG Version: 6.00 Build 0)  -->
<svg version="1.1" class="icons" id="Layer_1" xmlns="http://www.w3.org/2000/svg" xmlns:xlink="http://www.w3.org/1999/xlink" x="0px" y="0px"
	 viewBox="0 0 864 864" style="enable-background:new 0 0 864 864;" xml:space="preserve">
<g>
	<path class="icon-path" d="M274.4,145.9c4,0.9,8,0.8,12.1,0.1c6.1-1,12.2,0.4,18.3,0.7c0.9,0,2.1,0.6,2.6,1.3c2.9,3.9,7.2,4.2,11.4,4.4
		c2.6,0.1,4.7,0.7,6,3.1c0.7,1.3,2.1,2.2,3.6,2.2c4.3-0.1,8.4,1.3,12.6,1.7c2.9,0.3,5.8-0.3,8.3-1.8c3.7-2.2,7.4-2.1,11,0.1
		c1,0.6,2,1.2,3.1,1.4c8.7,1.3,14.1,6.7,18,14.2c1.4,2.7,3.9,4.5,6.7,5.9c6.8,3.2,13.5,6.5,20.3,9.7c1.5,0.7,3.1,1.4,4.6,1.4
		c6.4,0.1,12,2.4,17,6.1c3.7,2.8,8,4.2,12.3,5.4c8.1,2.2,16,6,24.9,3.7c4.8-1.2,8.7-4.3,13.3-5.9c3.2-1.1,6.4-2,9.8-2.5
		c5.7-0.8,9.7,1.8,12.9,5.9c1.9,2.4,3.8,3.1,6.8,2.4c14.8-3.3,29.3-7.8,43.9-11.8c23.6-6.4,47-13.3,70.2-20.8
		c18.8-6.1,37.6-12.4,56.4-18.5c15-4.9,30.3-8.9,45.5-13.1c16.6-4.7,33.5-8.6,49.9-13.9c5.1-1.7,10.4-3,15.6-4.1
		c3.1-0.7,6.4,0.9,7.5,3.2c2.6,5.5,5.4,11.1,6.1,17.3c0.6,5.5-0.4,6.8-5.7,8.5c-15.9,5.2-32.2,8.4-48.4,12.3
		c-21.4,5.1-42.9,10.2-64.4,14.9c-19.8,4.3-39.9,7.6-59.7,12c-28.5,6.4-57,12.6-85.1,20.6c-6.6,1.9-13.4,3.3-20.2,4.7
		c-3.2,0.7-5.2,1.9-5.6,5.4c-0.3,3.4-2.3,5.7-4.9,8c-4.6,4-8.5,8.9-12.9,13.2c-5.5,5.3-11.7,7.5-19.1,3.6c-3.9-2-8.3-2.7-12.2-4.7
		c-1.9-1-3.9,0-5.9,0.4c-6.7,1.5-12.8,4.3-18.7,7.6c-11.8,6.7-24.4,11.6-36.6,17.5c-8.6,4.1-17.4,6-26.4,7.9
		c-4.5,0.9-9.2,1-13.8,1.3c-9.3,0.5-18.6,1.2-28,0.8c-7.6-0.3-9,1.9-6.4,9c4.2,11.5,8.5,23,11.7,34.9c1.7,6.1,2.5,12-0.3,18.3
		c-2,4.5-2.1,9.8-2.2,14.8c0,2.4,0.9,4.4,2.4,6.2c2.2,2.5,2.9,5.2,2.4,8.6c-0.8,4.9-0.3,9.9-2.8,14.6c-1.3,2.4,0.6,4.8,2.4,6.7
		c4,4.1,7.8,8.5,12.2,12.2c3.3,2.8,5.3,6.3,5.3,10.8c0,5.8,4.2,9.8,6.6,14.4c3.6,6.9,8.4,13.2,12.2,20.1c3.8,6.8,7.5,13.7,10.9,20.7
		c5.4,11,7.5,23,9.9,34.9c1.8,9,4.1,18,8.4,25.9c3,5.5,5.4,11.5,9.3,16.5c1.1,1.5,2.1,3.2,2.5,5c1.4,6.4,4.7,12.1,6.7,18.3
		c0.8,2.7,2.4,5,4.2,7c2.8,3.2,4.8,6.8,5.1,11.1c0.1,1.7,0.6,3.3,2.3,4.1c5.1,2.4,7.3,7,9.1,11.9c1,2.9,2.6,5.3,4.7,7.6
		c7.2,8.1,12,17.9,17.5,27.1c5.1,8.6,9.8,17.3,16.4,25.1c4,4.8,7.9,9.1,13.4,12.1c3.8,2.1,6.8,5.2,7.5,9.8c1.1,8,5.9,14.2,9.7,21
		c1.7,3.1,3.2,6.2,4.5,9.5c2.9,7.2,7.2,13.2,13.9,17.7c6,4.1,12.2,7.7,19.1,10.2c5.5,2,8.4,11.8,6.4,17.9
		c-3,9.3-10.1,11.9-18.6,12.2c-12,0.5-24,0.3-36,0.9c-9.9,0.5-19.7,0.8-29.6-0.1c-3.4-0.3-6.7-0.8-10-1.8c-4.9-1.5-6.6-5.8-6.5-10
		c0.1-7.4-0.5-15,2.3-22.2c1.8-4.5,0.7-7.9-3.7-9.9c-14.7-6.7-21.6-20.3-29.7-32.8c-3.3-5.1-6.8-10.2-10.2-15.3
		c-2.3-3.3-4.6-6.5-6.1-10.3c-0.6-1.7-1.8-3-3.1-4.1c-9.3-8.3-16.2-18.5-21-29.9c-6.3-14.6-13.9-28.5-22.4-42
		c-8.7-13.7-19.3-25.9-29-38.8c-1.8-2.4-4.3-4.1-6.7-6c-2.4-1.8-4.6-1.1-6,1.9c-4.1,8.9-7.2,18.1-8.9,27.8
		c-2,11.6-3.5,23.3-6.6,34.7c-2.9,10.6-9.8,18.2-17.8,25.3c-8.3,7.3-18.2,10.1-28.6,12c-7.8,1.5-14.8,5.3-22.3,7.8
		c-4.7,1.6-9.5,3-14.2,4.7c-11.6,4.2-21.3,11.7-32.1,17.1c-4.8,2.4-7.9,7.4-11,11.7c-6.1,8.6-14.6,12.2-24.4,13.8
		c-5.7,0.9-10.2,4.6-15.7,6c-2.1,0.5-2.8,3-3.9,4.9c-3.5,5.8-7.3,7.2-13.6,4.9c-7-2.5-6.7-2.2-11.3,3.5c-9.2,11.3-9.4,24.4-8.6,37.8
		c0.3,4.6-1.3,7.6-5.7,8.7c-15,3.8-22.7-0.6-31.2-11.2c-4.1-5.1-6-11.4-8.3-17.5c-3.1-8.6-1.7-17-0.9-25.5c0.3-3.4,1.6-6.6,3.9-9.2
		c7-7.6,8.4-16.3,6-26.2c-2.3-9.3-1.7-18.8,1.5-27.7c1.9-5.3,6-9.7,10.7-12.6c4.5-2.8,10.4-2.7,15.3-0.5c6,2.7,12.5,1.8,18.7,3.6
		c4.1,1.2,8.2-0.5,11.8-2.8c4.8-3.2,10.1-5.2,15.7-5.8c3.7-0.4,6.7-1.6,9.6-3.7c5.6-4.1,12.4-5.8,18.7-8.7c5-2.3,9.5-5.1,13.5-8.6
		c6.2-5.5,13.3-8.9,20.9-11.6c5.9-2.1,11.7-4.3,16.8-8.1c3.4-2.5,7.3-4.2,11.2-5.8c3.8-1.5,5.7-4.1,6-7.9c0.3-3.7,0.8-7.5-2.1-10.7
		c-1-1.1-0.9-2.8-0.9-4.3c0.4-6.2-0.6-12.2-1.2-18.3c-0.5-5-0.2-10,0.1-15c0.3-7.8,2.1-15.7-1.8-23.2c-0.3-0.5-0.5-1.2-0.4-1.8
		c1.1-9.2-6.7-14.6-9.4-22.2c-0.1-0.4-0.7-0.8-1.1-1c-5.3-1.4-6.3-5.5-6.5-10.2c-0.1-2.1-1.1-3.8-2.5-5.3c-6.5-7-8.6-15.6-8.8-24.9
		c-0.1-6.3-1.9-12.4-2.7-18.6c-0.3-2-0.3-3.9-0.3-5.9c0-1.2,0.1-2.5,1.1-3.2c3.5-2.5,3.7-6.3,4.4-10c1-5.2,2.9-9.8,7.2-13.2
		c1.4-1.1,1.6-2.7,1.6-4.4c0.1-6-1.9-11.4-5.4-16.1c-1.7-2.3-2.6-4.4-1.8-7.3c1.1-3.9-1.3-6.6-3.7-9.1c-1.6-1.7-3.4-3.2-5.4-4.5
		c-4.5-3-7.4-6.8-9.5-11.9c-2-5-5.3-9.5-7.6-14.5c-2.6-5.4-5.1-10.8-6.9-16.4c-1.1-3.3-3.1-8.7-4.2-12c-0.8-2.4-1.2-4.8-1.1-7.5
		c0.1-5.8-2.6-10.9-5.1-15.9c-5.1-10.6-11.9-20.6-12.6-32.7c-0.5-9-1.7-17.9-3.1-26.7c-1.9-12.2,1.1-24.2,0.2-36.3
		c-0.3-3.9,1.4-7.4,3.3-10.7c3.1-5.5,1.5-10-2.4-14.3c-1.5-1.6-2.6-3.4-3.3-5.4c-2.1-5.6-1.5-7.6,3.2-11.3c4.5-3.5,7.5-7.8,8.1-13.7
		c0.8-6.8,2.6-13.3,6.4-19.1c6.3-9.4,15.7-14.2,26.4-15.6c11.8-1.6,23.6-0.2,33.9,6.6c6.7,4.4,12.8,9.3,17.6,16c5,7,9,14,10.1,22.6
		c0.4,3,2.6,4.2,5.5,4.8c2.9,0.6,6.1,0,8.5,2.3 M344.3,233c0.2,0,0.4,0,0.6,0c2.8-1,6.5-0.6,9.4-2.1c7.5-4,15.8-5.3,23.5-8.7
		c0.9-0.4,2.2-0.4,1.9-1.8c-0.2-1.2-1.4-1.4-2.4-1.4c-5,0.2-10.2,0.3-14.8,2.2c-4.5,1.9-8.5,1.6-12.6-0.3c-2.1-1-4.2-1.5-6.5-1.3
		c-3.1,0.3-5.9-0.7-8.6-2.1c-6.6-3.3-11.8-8.7-18.4-12.1c-2.7-1.4-3.9-1.1-4.3,1.9c-0.2,1.3-0.2,2.6,0.5,3.7
		c2.6,3.8,3.5,7.9,3.5,12.4c0,3.3,2,5,5.3,5.1c2.9,0.1,5.7,0.5,8.5,1.3C334.6,230.9,339.2,231.9,344.3,233z"/>
</g>
</svg>
