<?xml version="1.0" encoding="utf-8"?>
<!-- Svg Vector Icons : http://www.onlinewebfonts.com/icon -->
<!DOCTYPE svg PUBLIC "-//W3C//DTD SVG 1.1//EN" "http://www.w3.org/Graphics/SVG/1.1/DTD/svg11.dtd">
<svg class="icons" version="1.1" xmlns="http://www.w3.org/2000/svg" xmlns:xlink="http://www.w3.org/1999/xlink" x="0px" y="0px" viewBox="0 0 1000 1000" enable-background="new 0 0 1000 1000" xml:space="preserve">
<metadata> Svg Vector Icons : http://www.onlinewebfonts.com/icon </metadata>
<g><path class="icon-path" d="M176,409.7h162.7v162.7H176V409.7z"/><path class="icon-path" d="M420.1,409.7h162.7v162.7H420.1V409.7z"/><path class="icon-path" d="M664.2,409.7h162.7v162.7H664.2V409.7z"/><path class="icon-path" d="M176,653.8h162.7v162.7H176V653.8z"/><path class="icon-path" d="M420.1,653.8h162.7v162.7H420.1V653.8z"/><path class="icon-path" d="M664.2,653.8h162.7v162.7H664.2V653.8z"/><path class="icon-path" d="M921.2,126.9H807.4V32c0-10.7-8.7-19.5-19.5-19.5h-84.8c-10.7,0-19.5,8.7-19.5,19.5V127H319.2V32c0-10.8-8.7-19.5-19.4-19.5H215c-10.7,0-19.4,8.7-19.4,19.5V127H78.8c-38,0-68.8,30.8-68.8,68.8v722.8c0,38,30.8,68.8,68.8,68.8h842.3c38,0,68.8-30.8,68.8-68.8V195.8C990,157.7,959.2,126.9,921.2,126.9z M906.9,892.8c0,5.2-4.2,9.4-9.4,9.4H104.6c-5.2,0-9.4-4.2-9.4-9.4V333.4c0-5.2,4.2-9.4,9.4-9.4h792.9c5.2,0,9.4,4.2,9.4,9.4V892.8z"/></g>
</svg>