<?xml version="1.0" encoding="utf-8"?>
<!-- Generator: Adobe Illustrator 21.0.0, SVG Export Plug-In . SVG Version: 6.00 Build 0)  -->
<svg version="1.1" class="icons" id="Layer_1" xmlns="http://www.w3.org/2000/svg" xmlns:xlink="http://www.w3.org/1999/xlink" x="0px" y="0px"
	 viewBox="0 0 864 864" style="enable-background:new 0 0 864 864;" xml:space="preserve">
<g>
	<path class="icon-path" d="M89.2,664.9c3.3-3.3,7.3-5.4,11.8-6.8c1.4-0.4,2.6-1.1,2.9-2.7c1.1-7.5,4-14.2,7.4-20.9c2.3-4.5,3.2-9.4,3.7-14.6
		c0.7-7.5,2.2-15.2,4.4-22.5c0.6-2,0.9-4,0.6-6.1c-0.6-3.5,0.7-6.3,3.4-8.4c3.5-2.8,6.1-6.4,9.7-9.1c10.8-8.4,29.5-4.5,34.1,9.7
		c2.3,7,2.5,6.8,9.6,4.6c7.4-2.3,13.9-6.2,20.4-10.4c5.2-3.3,9.8-7.5,15.1-10.5c12.1-6.8,25.6-8.9,39.2-10
		c8.6-0.7,17.3-1.3,25.9-2.2c3.5-0.3,5.8-3,8.4-5.1c7.6-6,12.1-14.2,16.2-22.7c5.8-11.8,13-22.8,20.3-33.8c2.3-3.5,4.2-7.1,5.4-11
		c0.8-2.8,2.3-5.2,3.6-7.8c2.7-5.1,5.2-10.3,7.6-15.6c1-2.1,2.3-3.9,3.6-5.8c3.4-5,4.6-11.3,9.6-15.2c0.9-0.7,0.5-1.8,0.2-2.9
		c-1.1-4.6,0.2-7.3,4.4-9.3c1.2-0.5,1.4-1.3,1.3-2.4c-0.1-1-0.3-2.5,0.2-3c5.2-4.4,3.4-12,8-17c2.3-2.4,3.7-6,6.3-8.6
		c1.9-1.8,3.1-4.1,3.7-6.8c0.7-3.3,2.8-5.8,5.9-7.6c5.5-3.2,9.8-7.4,13.2-13.1c3-5.1,4.3-9.7,3.2-15.5c-0.8-4.2,2-7.9,6.2-9.6
		c5-2,10.4-2.5,15.3-5c2.6-1.3,4.2-3,5.5-5.7c7.5-14.7,9-30.9,10.2-46.8c1.2-15.8,2.6-31.6,5.2-47.2c0.3-2.1-0.2-3.5-1.9-5
		c-6.2-5.2-12-10.6-17.1-17c-7.1-9-15.1-17.5-24.7-24.1c-1.5-1-3-2.1-4.4-3.3c-3-2.5-6.4-4-10.3-3.8c-8.8,0.3-17-3.1-25.5-4.7
		c-2.1-0.4-4.1-2.1-5.7-3.6c-1.9-1.8-2.1-4.2-0.9-6.7c3.4-7.4,7.1-14.6,12.7-20.6c1.9-2,1.5-3.2-0.6-4.6c-7.5-5-12.5-11.9-15.8-20.2
		c-1.2-3-1.5-6-1-9.1c3.2-17.1,9.1-33,19.4-47.2c3.9-5.4,9.1-9.6,13.7-14.3c1.4-1.4,2.6-2.9,4.1-4.1c3.5-2.9,5.6-6.5,5.9-11.1
		c0.1-1.6,0.7-3.5,2.1-4.2c4.9-2.7,9.7-5.9,15.3-7.2c1.2-0.3,1.6-0.2,1.9-1.6c1-4.2,3.3-5.3,7-3.7c3.3,1.3,8.2-1,9.4-4.4
		c0.3-0.8,0.5-1.5,0.8-2.3c1.5-3,4-3.5,5.8-0.8c1.7,2.6,4,3.4,6.8,4c8.7,2.2,14.6,9.3,15.3,18.4c0.1,1.8,0.3,3.3,2,4.4
		c1.5,1,1.2,2.6,0.9,4.1c-1.5,9.6-11.4,19.6-21.2,21.3c-6.9,1.2-13.8,2.2-20.8,1c-1.9-0.3-3.2,0.7-4.3,2.2
		c-6.8,9.9-11.5,20.5-12.1,32.7c-0.3,4.9,1.7,7.6,6,9.8c6.5,3.2,13.4,3.5,20.3,4.5c11,1.7,21.2,5.6,30.6,11.4
		c7.7,4.7,16,7.2,25.1,7.1c9.4-0.2,18.5,0.4,27.7,3.2c8.8,2.7,17.7,5.2,26.3,8.7c4.5,1.8,7.9,5.4,11.8,8.2c1.7,1.3,3.2,1.7,5.3,0.9
		c3.8-1.4,7.4,0.1,10.9,1.6c2,0.8,3.9,1.9,6,2.6c3.9,1.3,7.8,1.6,11.3-1.3c2.1-1.7,4.6-3,6.8-4.6c5.9-4.2,6.1-10.8,7.5-17
		c1.1-5.2-0.5-9.9-0.7-14.9c-0.2-4.8,0.1-9.5-2.8-13.8c-1.5-2.2-1.1-5.1-0.2-7.7c1.9-5.7,2.8-11.5,2.8-17.5
		c0-14.2,4.6-26.4,15.2-36.2c7.7-7.1,16.8-10.4,27-12c9.6-1.5,19-0.6,28.2,1.8c8.2,2.1,13.7,8,17.8,15.2c0.4,0.7,0.9,1.4,1.1,2.1
		c1.5,4.9,4.7,6.9,9.8,7.9c10.6,2,18.6,13.5,17.7,24.3c-0.4,4.7-2.5,8.5-7,10.6c-3.7,1.7-7.5,3-11.6,2.4c-3.1-0.4-3.9,0.8-4,3.5
		c-0.2,5.7,0.5,11.4-0.6,17.1c-1.7,9.1-4.3,18-7.9,26.6c-1.2,3-2.3,6-3.4,9c-3.4,8.8-6,10.3-14.5,10c-2.2-0.1-3,0.6-3.9,2.3
		c-2.8,5.9-4.5,12.3-8.5,17.5c-0.7,0.9-0.5,1.7,0.4,2.4c4.7,3.6,8.7,8.2,13.9,11.1c2.6,1.4,4.5,3.4,5.9,6
		c4.5,8.5,10.8,15.6,17.4,22.4c10.1,10.4,19.9,21.1,28.8,32.6c2.2,2.8,4.6,5.4,7,8c2.7,3,4.4,6.3,4.5,10.5c0,3.2,0.9,6.3,3.1,8.9
		c3,3.6,2.8,8.4,4.2,12.6c1.8,5.1,4.7,8,10,9.3c5.1,1.3,9.3,4.4,10.6,10c0.4,1.6,1.4,1.9,2.6,2.3c5.3,1.4,10.4,0.4,15.6-0.9
		c1.2-0.3,2.8-1.7,3.5,0.3c0.5,1.5-1.1,2.3-2.4,2.9c-4.1,1.8-8.4,2-12.8,2.4c-3.5,0.3-4.9,2.2-6,5.4c-1.7,5.2-0.2,9.5,2.4,13.6
		c4.9,7.6,5.1,16.5,7.2,24.9c0.9,3.6-3.3,8.5-7.5,9.5c-4.5,1-9,2.7-13.8,2.3c-1.9-0.2-2.8,0.7-3.2,2.7c-1.1,5.4-2.3,10.7-2.4,16.4
		c-0.1,5.3,1,9.8,2.5,14.5c0.4,1.2,1.3,2.6-0.2,3.3c-1.4,0.7-1.8-0.9-2.5-1.7c-0.2-0.2-0.5-0.3-1.5-1c0.7,4.7-1,8.8-0.4,13
		c1.3,8.5-1.7,15.2-8,20.7c-3.5,3-7.4,3.2-11.6,2.7c-1.4-0.2-2.9-0.2-4-0.8c-5.7-3-11.1-0.4-16.6,0.5c-0.6,0.1-1.3,0.6-1.7,1.1
		c-1.5,1.6-2.8,1.7-4.1-0.3c-1.6-2.5-4.5-2.4-6.8-2.2c-6.2,0.6-9.3-3.3-10.6-8.5c-0.3-1.1-0.4-2.3-1.7-2.8c-1.7-0.6-1.7-2-1.7-3.4
		c0.2-6-0.1-12.3,1.7-18c1.3-3.9,3.6-7.4,4.1-11.6c0.1-1.2,1.6-1.4,2.5-0.7c1.9,1.5,2.2,0.1,2.8-1.3c0.9-2.4,1.3-4.8,0.6-7.4
		c-0.9-3.8-1.5-7.6-2.3-11.4c-0.6-2.8-0.5-6-4.1-7.3c-0.9-0.3-1.1-1.4-1.2-2.4c-1.2-8.8-4.2-17.1-6.4-25.6c-0.2-0.7-0.4-1.3-0.6-2
		c-1.5-4.2-2.4-4.3-5.5-1.2c-6.3,6.4-13.7,11-22.7,12.6c-1.9,0.3-3.2,1-3.9,2.8c-2.1,5.9-6.5,10.4-11.7,13
		c-10,4.9-16.5,12.5-21.2,22.2c-2.9,6.1-8.5,9.5-14,12.7c-2.4,1.4-4.3,3.7-7.5,4.4c3.2,3.9,7,6.9,10.7,9.8c1.4,1.1,2.7,2,3.5,3.6
		c1.3,2.7,3.9,4.4,6.1,6.4c6.7,6.5,13.3,13.2,19.3,20.5c2,2.3,4.5,4.2,6.8,6.3c5.9,5.1,9.4,12.4,15.3,17.5c0.6,0.6,0.9,1.6,1.3,2.4
		c1.7,3.8,3.2,7.6,6,10.7c1.6,1.8,2.7,4.1,3,6.5c1.2,8,5.7,13.8,12.2,18.3c7.2,5,10.4,11.9,10,20.6c-0.2,3.2,0.5,6,2.1,8.8
		c2.1,3.7,3.9,7.5,5.7,11.3c2.1,4.4,3.4,8.9,1.4,13.9c-2,4.8-0.7,10.3-2.3,15.2c-2.5,7.9-1.9,15.3,0.7,22.9
		c5,14.4,6.5,29.5,7.8,44.5c1,10.6-0.7,21.4-2.6,32c-1.5,8-2.8,16.1-2.9,24.1c-0.1,7.6,1.2,15.2,2.1,22.8c0.7,5.6,0.5,11.2,0.3,16.8
		c-0.1,3.5-2.1,6.2-5.2,8c-3.3,1.9-6.6,3.7-9.6,6c-1.8,1.4-2.3,2.7-0.7,4.5c0.6,0.7,1.2,1.4,1.6,2.2c1,2,2.2,2.7,4.3,1.4
		c1.7-1,3.7-1,5.7-0.6c1.1,0.2,2.1,0.6,1.8,2c-0.7,2.6,1.1,3.4,2.9,4.3c5.4,2.7,11.1,4.8,15.9,8.7c0.9,0.8,2.3,1.1,3.2,3.2
		c-8.1-3.8-15.5-7.6-23.8-8.8c4.6,1.3,8.9,3.1,12.8,5.8c3.7,2.5,6.8,5.4,8.4,9.6c1.8,4.8-1.4,8.5-6.5,7.6c-3-0.5-5.6-1.9-8.2-3.2
		c3.5,3.7,7.2,7.1,11.6,9.7c1.6,0.9,3.3,0.6,5,0.3c2.6-0.5,4.5,0.4,5.5,2.9c1.1,2.7,3.3,4.3,5.7,6c6.5,4.6,12.9,9.5,16.8,16.7
		c3,5.5,0.2,11.9-5.9,13.4c-2,0.5-4,1-5.9,1.9c-4.1,1.9-8.5,1.2-12.8,0.8c-9.1-1-18.3-1.2-27.1-4.1c-5.4-1.8-11.3-1.7-16.4-4.2
		c-3.9-1.9-8.1-3.2-11.9-5.5c-5.7-3.4-12.1-3.3-18.3-2.3c-7.7,1.2-14.9-0.1-21.5-3.8c-6.8-3.8-9.8-10.2-10-18c0-0.2,0-0.5,0.1-0.7
		c4-5.8,2.3-12.8,4.2-19.1c1.5-5.1,3.3-10,6.8-14.1c2.8-3.3,3.3-6.3,0.9-10.5c-3.1-5.5-0.7-11.3,1.3-16.8c1-2.7,2.3-5.2,3.6-7.8
		c2.8-5.9,1.6-11.8,0.6-17.8c-1-5.6-2.1-11.3-1.7-17c0.6-8.1-1.4-15.4-4.9-22.4c-6.2-12.5-7.6-25.9-7-39.7c0.4-10.2,0.7-20.3,1-30.5
		c0.2-7.1,0.2-14.1-2.2-20.9c-1.4-4-0.3-7.9,0.9-11.8c2-6.7,0.5-9.8-6-12.3c-0.6-0.2-1.3-0.5-1.9-0.8c-5.7-3.3-11.6-5.6-18.4-6.6
		c-6.6-1-12.5-5.4-18.5-8.6c-8.8-4.7-18-8.5-27.3-12c-11.5-4.3-22.1-10.4-32.9-16.1c-7.1-3.7-13.6-8.4-19.9-13.4
		c-1.9-1.5-3.7-1.8-6-1c-8.5,3.2-16.2,7.9-23.6,13.2c-13.5,9.6-26.9,19.4-40.9,28.4c-21.6,13.8-41.5,30-61.3,46.2
		c-11.2,9.1-22.6,17.9-36.5,22.7c-3,1-5.7,2.9-8.5,4.5c-11,6.4-22.7,5.8-34.5,3.1c-7.1-1.6-14.2-2.2-21.4-2c-1,0-1.8,0.4-2.5,1
		c-13.6,10.8-29.5,16.7-46.2,20.8c-5.8,1.4-11.4,3.2-17.5,2.5c-2.2-0.3-4.7,0.9-6.9,1.7c-3.3,1-6.7,1.9-10.1,2
		c-3.2,0.1-4.6,1.5-4.8,4.5c-0.3,5.8-2.1,11.2-3.6,16.7c-2,7.6-5.5,14.6-10.3,20.8c-9.2,12.1-21.7,11.5-30.9-1.2
		c-2.8-3.8-4.7-8.1-6.5-12.4c-2-4.8-3.2-9.6-3.8-14.7c-0.3-2.7-1.6-3.4-4.2-3c-3.9,0.7-7.9,2.2-11.7-0.3
		C89.2,667.7,89.2,666.3,89.2,664.9z M676.5,783.8c0,1.7,1,2.5,1.6,3.4c3.7,5.6,9.2,9.1,14.8,12.4c1.7,1,3.6,2.7,5.5,0.7
		c1.9-2,0.5-4.1-0.7-5.9c-0.9-1.4-2.1-2.7-3.4-3.8C689.2,786.5,683.2,784.7,676.5,783.8z M95.9,667.7c1.8-0.4,4.2-0.9,6.6-1.7
		c1.8-0.6,1.9-2.1,1.5-3.6c-0.5-1.7-1.8-1.5-3-1.2c-2.4,0.7-4.8,1.5-6.8,3c-0.8,0.6-1.9,1.2-1.6,2.4
		C92.9,667.9,94.2,667.5,95.9,667.7z"/>
</g>
</svg>
